<svg version="1.1" xmlns="http://www.w3.org/2000/svg" xmlns:xlink="http://www.w3.org/1999/xlink" x="0px" y="0px"
	 viewBox="0 0 6000 6000" style="enable-background:new 0 0 6000 6000;" xml:space="preserve">
<g id="Ñëîé_2">
	<g>
		<path style="fill:#62696d;" d="M4208.318,2404.905c6.629,7.622,10.181,14.11,15.646,17.647
			c344.179,222.781,484.926,565.172,547.361,948.379c70.807,434.587,16.887,860.102-128.534,1273.067
			c-64.105,182.048-145.742,357.955-220.678,536.121c-11.713,27.849-27.229,55.224-46.101,78.709
			c-40.206,50.031-97.292,61.174-144.555,32.399c-49.059-29.867-62.146-80.349-34.274-142.05
			c46.075-101.996,95.52-202.504,140.003-305.177c168.076-387.934,264.843-790.645,244.741-1216.46
			c-10.987-232.73-56.004-457.683-160.16-668.203c-59.394-120.046-135.414-226.622-256.194-311.095
			c-14.941,28.869-27.838,54.278-41.158,79.463c-222.943,421.53-544.357,724.62-1019.579,837.39
			c-71.189,16.894-148.832,20.747-221.786,13.498c-256.755-25.518-419.927-260.877-361.652-511.871
			c27.574-118.765,89.866-218.644,166.309-311.279c188.759-228.74,434.013-363.704,717.59-437.774
			c160.737-41.984,321.456-47.141,484.006-15.749c29.337,5.664,58.848,10.428,103.707,18.322
			c-4.198-66.167-6.008-122.38-11.593-178.215c-35.457-354.431-204.688-635.771-479.468-854.502
			c-108.557-86.415-224.418-165.126-343.337-236.747c-248.519-149.677-524.361-177.911-806.22-154.451
			c-141.65,11.792-282.115,39.748-422.476,64.082c-49.63,8.604-97.516,27.663-145.918,42.844
			c-64.569,20.252-108.177,8.256-132.573-37.623c-25.87-48.651-9.077-103.331,52.882-134.908
			c53.762-27.4,112.257-49.269,171.162-62.074c139.163-30.25,278.9-61.189,420.046-78.357
			c374.887-45.597,731.325,7.126,1051.422,223.466c89.955,60.797,180.982,120.59,266.469,187.313
			c394.854,308.189,595.036,712.961,594.911,1215.159C4208.312,2346.612,4208.318,2377.001,4208.318,2404.905z M3966.083,2547.482
			c-35.191-11.689-53.896-19.08-73.211-24.145c-368.098-96.486-867.009,95.61-1093.953,442.623
			c-27.364,41.842-50.607,89.366-62.868,137.54c-37.613,147.771,44.589,258.984,196.304,263.4
			c59.832,1.741,122.085-8.455,180.026-24.677c357.172-99.974,602.321-338.693,787.946-647.819
			C3925.953,2651.727,3941.57,2603.046,3966.083,2547.482z"/>
		<path style="fill:#62696d;" d="M1415.558,1015.916c65.405,2.672,116.699,77.811,77.639,128.768
			c-45.586,59.467-104.275,115.065-168.908,151.984c-62.084,35.465-129.711-26.797-120.143-98.297
			C1212.471,1136.157,1354.676,1013.429,1415.558,1015.916z"/>
		<path style="fill:#62696d;" d="M1096.649,1361.887c51.986,0.127,94.835,45.57,92.819,98.438
			c-2.031,53.241-46.726,93.762-100.081,90.734c-49.34-2.8-88.226-43.209-88.567-92.037
			C1000.463,1407.776,1045.857,1361.763,1096.649,1361.887z"/>
		<path style="fill:#62696d;" d="M4315.629,5099.935c160.091-43.155,310.071-83.771,460.178-123.907
			c32.714-8.747,65.509-18.98,98.926-22.898c56.724-6.65,105.506,25.005,119.906,72.851c15.043,49.982-7.798,97.115-60.88,125.552
			c-2.986,1.6-5.989,3.42-9.213,4.284c-206.035,55.28-411.352,113.514-618.55,164.028c-73.092,17.822-123.56-12.465-156.042-83.906
			c-86.927-191.191-169.622-384.31-253.833-576.731c-4.062-9.282-7.24-19.088-9.622-28.941
			c-13.461-55.698,4.62-98.163,50.14-118.738c44.716-20.217,89.887-5.642,121.063,44.215c17.802,28.471,28.67,61.233,43.167,91.822
			C4171.679,4796.957,4242.658,4946.27,4315.629,5099.935z"/>
	</g>
</g>
</svg>
